<svg id="Layer_1" data-name="Layer 1" xmlns="http://www.w3.org/2000/svg" viewBox="0 0 107.99 23.16"><title>logo</title><g style="isolation:isolate"><path d="M4.91,19.29v9.25H2V7.22H9.74a8.13,8.13,0,0,1,5.35,1.55,5.58,5.58,0,0,1,1.84,4.52,4.82,4.82,0,0,1-.85,2.85,5.85,5.85,0,0,1-2.5,1.94,4.42,4.42,0,0,1,2.53,1.85,6.08,6.08,0,0,1,.77,3.17v2a6.6,6.6,0,0,0,.22,1.79,2.63,2.63,0,0,0,.76,1.28v.36h-3a2.42,2.42,0,0,1-.73-1.47,11.79,11.79,0,0,1-.16-2V23.13a3.86,3.86,0,0,0-1-2.78,3.56,3.56,0,0,0-2.71-1.06Zm0-2.27H9.45A5.36,5.36,0,0,0,13,16.09a3.51,3.51,0,0,0,1.08-2.83A3.64,3.64,0,0,0,13,10.48a4.61,4.61,0,0,0-3.26-1H4.91Z" transform="translate(-2.02 -5.68)" fill="#4b4e52"/><path d="M27.94,28.84a6.68,6.68,0,0,1-5.27-2.2,8.33,8.33,0,0,1-2-5.72v-.65a8.1,8.1,0,0,1,2-5.63,6.2,6.2,0,0,1,4.77-2.25,6,6,0,0,1,4.84,1.94A7.65,7.65,0,0,1,34,19.48v1.8H23.7l0,.08a6.26,6.26,0,0,0,1.15,3.75,3.73,3.73,0,0,0,3.13,1.46,7.49,7.49,0,0,0,2.57-.41A6.2,6.2,0,0,0,32.42,25l1.13,1.87a6.7,6.7,0,0,1-2.25,1.4A8.85,8.85,0,0,1,27.94,28.84ZM27.5,14.66A3.14,3.14,0,0,0,25,15.88a5.84,5.84,0,0,0-1.26,3.06l0,.07H31.1v-.38a4.39,4.39,0,0,0-.91-2.83A3.22,3.22,0,0,0,27.5,14.66Z" transform="translate(-2.02 -5.68)" fill="#4b4e52"/><path d="M47,28.54c-.09-.48-.17-.9-.22-1.27a8.32,8.32,0,0,1-.1-1.11,6.94,6.94,0,0,1-2.1,1.92,5.42,5.42,0,0,1-2.79.76A5.19,5.19,0,0,1,38,27.58a4.65,4.65,0,0,1-1.3-3.5,4.09,4.09,0,0,1,1.84-3.55,8.61,8.61,0,0,1,5-1.28h3.13V17.68a2.88,2.88,0,0,0-.85-2.2,3.3,3.3,0,0,0-2.4-.82,3.47,3.47,0,0,0-2.26.71,2.14,2.14,0,0,0-.88,1.71H37.5l0-.09a3.85,3.85,0,0,1,1.63-3.16,6.7,6.7,0,0,1,4.45-1.44,6.58,6.58,0,0,1,4.34,1.37,4.88,4.88,0,0,1,1.64,4v7.63c0,.57,0,1.12.08,1.64a8.33,8.33,0,0,0,.33,1.56Zm-4.79-2.13a5.19,5.19,0,0,0,2.83-.8,3.82,3.82,0,0,0,1.64-1.84V21.2H43.4a4.23,4.23,0,0,0-2.79.87,2.64,2.64,0,0,0-1,2.06,2.18,2.18,0,0,0,.66,1.67A2.72,2.72,0,0,0,42.17,26.41Z" transform="translate(-2.02 -5.68)" fill="#4b4e52"/><path d="M56.84,28.54H54V5.68h2.89Z" transform="translate(-2.02 -5.68)" fill="#4b4e52"/><path d="M71,24.5a2.55,2.55,0,0,0-.92-1.94,7.37,7.37,0,0,0-3.3-1.36,11.1,11.1,0,0,1-4.2-1.63,3.36,3.36,0,0,1-1.35-2.86,3.81,3.81,0,0,1,1.53-3.06,6.17,6.17,0,0,1,4-1.26A6.37,6.37,0,0,1,71,13.72,4,4,0,0,1,72.54,17l0,.08H70.88a2.94,2.94,0,0,0-1.1-2.27,4.39,4.39,0,0,0-3-1,4.32,4.32,0,0,0-2.88.82,2.48,2.48,0,0,0-1,1.93,2.3,2.3,0,0,0,.83,1.81,8,8,0,0,0,3.3,1.25,10.72,10.72,0,0,1,4.23,1.73,3.56,3.56,0,0,1,1.41,3,3.86,3.86,0,0,1-1.6,3.22,6.87,6.87,0,0,1-4.25,1.22,6.9,6.9,0,0,1-4.53-1.37,3.89,3.89,0,0,1-1.56-3.28l0-.09h1.61a2.91,2.91,0,0,0,1.4,2.48,5.91,5.91,0,0,0,3,.77,4.91,4.91,0,0,0,3-.83A2.48,2.48,0,0,0,71,24.5Z" transform="translate(-2.02 -5.68)" fill="#4b4e52"/><path d="M78.74,8.15H77V5.68h1.75Zm0,20.39H77V12.69h1.75Z" transform="translate(-2.02 -5.68)" fill="#4b4e52"/><path d="M84.76,27H95.05v1.5H82.59V27.23l9.55-13H82.88V12.69H94.35V14Z" transform="translate(-2.02 -5.68)" fill="#4b4e52"/><path d="M104,28.84A6.36,6.36,0,0,1,99,26.65a8.05,8.05,0,0,1-2-5.57v-.81a8.26,8.26,0,0,1,2-5.64,6.07,6.07,0,0,1,4.73-2.24,5.87,5.87,0,0,1,4.59,1.85A7.07,7.07,0,0,1,110,19.16v1.49H98.82v.43a7,7,0,0,0,1.42,4.47,4.53,4.53,0,0,0,3.73,1.8,7.72,7.72,0,0,0,2.8-.45,5.62,5.62,0,0,0,2-1.31l.75,1.2a6.34,6.34,0,0,1-2.27,1.5A8.66,8.66,0,0,1,104,28.84Zm-.22-14.95a4.19,4.19,0,0,0-3.26,1.48A6.4,6.4,0,0,0,99,19.09l0,.07h9.29v-.44a5.07,5.07,0,0,0-1.22-3.45A4.17,4.17,0,0,0,103.75,13.89Z" transform="translate(-2.02 -5.68)" fill="#4b4e52"/></g></svg>