<?xml version="1.0" encoding="utf-8"?>
<!-- Generator: Adobe Illustrator 23.0.1, SVG Export Plug-In . SVG Version: 6.00 Build 0)  -->
<svg version="1.1" id="Layer_1" xmlns="http://www.w3.org/2000/svg" xmlns:xlink="http://www.w3.org/1999/xlink" x="0px" y="0px"
	 viewBox="0 0 16 16" style="enable-background:new 0 0 16 16;" xml:space="preserve">
<style type="text/css">
	.st0{fill:#656565;}
</style>
<path class="st0" d="M7.1,1.6C4,1.6,1.6,4,1.6,7.1c0,3,2.5,5.5,5.5,5.5c3,0,5.5-2.5,5.5-5.5C12.6,4,10.1,1.6,7.1,1.6z M7.1,11.5
	c-2.4,0-4.4-2-4.4-4.4c0-2.4,2-4.4,4.4-4.4s4.4,2,4.4,4.4C11.5,9.5,9.5,11.5,7.1,11.5z M14.4,13.3c0,1.2,0.1,1.1-1.1,1.1l-1.7-1.7
	c0-1.2-0.1-1.1,1.1-1.1L14.4,13.3z"/>
</svg>
